# xmcd
#
# Track frame offsets:
#	180
#	13667
#	26121
#	38563
#	51325
#	61875
#	74362
#	87249
#	100263
#	109812
#	122037
#	139101
#	150297
#	163672
#	176806
#	191219
#	204269
#	216647
#
# Disc length: 3088 seconds
#
# Revision: 0
# Processed by: cddbd v1.5.2PL0 Copyright (c) Steve Scherf et al.
# Submitted via: audiograbber 1.81.03
#
DISCID=030c0e12
DTITLE=Various Artist - Blues Festival CD 4
DYEAR=2005
DGENRE=Blues
TTITLE0=Hobo Blues
TTITLE1=I Want To Go Home
TTITLE2=Moonshine
TTITLE3=Rock House Boogie
TTITLE4=Jumpin' Tonight
TTITLE5=Early in the Morning
TTITLE6=Bull Cow Blues
TTITLE7=Warm It Up To Me
TTITLE8=Onions
TTITLE9=Coal Miner Blues
TTITLE10=The Army Blues
TTITLE11=Blue Monday
TTITLE12=Skinny Woman
TTITLE13=Mama's Got the Blues
TTITLE14=Baby You Gotta Change Your Mind
TTITLE15=Grass Cutter Blues
TTITLE16=Gamblin Man Blues Champion
TTITLE17=32-20 Blues
EXTD=
EXTT0=
EXTT1=
EXTT2=
EXTT3=
EXTT4=
EXTT5=
EXTT6=
EXTT7=
EXTT8=
EXTT9=
EXTT10=
EXTT11=
EXTT12=
EXTT13=
EXTT14=
EXTT15=
EXTT16=
EXTT17=
PLAYORDER=
